SourceSans3-ExtraLight.ufo
<glyph name="X" format="2">
	<unicode hex="0058"/>
	<advance width="470"/>
	<outline>
		<contour>
			<point x="18" y="0" type="line"/>
			<point x="50" y="0" type="line"/>
			<point x="172" y="212" type="line" smooth="yes"/>
			<point x="190" y="244"/>
			<point x="208" y="276"/>
			<point x="230" y="316" type="curve"/>
			<point x="234" y="316" type="line"/>
			<point x="258" y="276"/>
			<point x="278" y="244"/>
			<point x="296" y="212" type="curve" smooth="yes"/>
			<point x="418" y="0" type="line"/>
			<point x="452" y="0" type="line"/>
			<point x="252" y="340" type="line"/>
			<point x="438" y="660" type="line"/>
			<point x="406" y="660" type="line"/>
			<point x="290" y="456" type="line" smooth="yes"/>
			<point x="272" y="426"/>
			<point x="260" y="404"/>
			<point x="240" y="368" type="curve"/>
			<point x="236" y="368" type="line"/>
			<point x="214" y="404"/>
			<point x="200" y="426"/>
			<point x="182" y="456" type="curve" smooth="yes"/>
			<point x="66" y="660" type="line"/>
			<point x="32" y="660" type="line"/>
			<point x="218" y="342" type="line"/>
		</contour>
	</outline>
	<anchor name="aboveUC" x="236" y="682"/>
	<anchor name="belowLC" x="234" y="-22"/>
</glyph>
<glyph name="l" format="2">
	<unicode hex="006C"/>
	<advance width="230"/>
	<outline>
		<contour>
			<point x="144" y="-8" type="curve" smooth="yes"/>
			<point x="154" y="-8"/>
			<point x="162" y="-6"/>
			<point x="170" y="-2" type="curve"/>
			<point x="164" y="22" type="line"/>
			<point x="156" y="20"/>
			<point x="152" y="20"/>
			<point x="148" y="20" type="curve" smooth="yes"/>
			<point x="134" y="20"/>
			<point x="126" y="28"/>
			<point x="126" y="50" type="curve" smooth="yes"/>
			<point x="126" y="722" type="line"/>
			<point x="96" y="722" type="line"/>
			<point x="96" y="56" type="line" smooth="yes"/>
			<point x="96" y="10"/>
			<point x="114" y="-8"/>
		</contour>
	</outline>
	<anchor name="aboveUC" x="110" y="732"/>
	<anchor name="belowLC" x="130" y="-22"/>
	<anchor name="center" x="110" y="400"/>
</glyph>
<glyph name="mu" format="2">
	<unicode hex="00B5"/>
	<unicode hex="03BC"/>
	<advance width="536"/>
	<outline>
		<contour>
			<point x="96" y="-180" type="line"/>
			<point x="126" y="-180" type="line"/>
			<point x="122" y="-98"/>
			<point x="122" y="-60"/>
			<point x="122" y="54" type="curve"/>
			<point x="150" y="0"/>
			<point x="190" y="-12"/>
			<point x="242" y="-12" type="curve" smooth="yes"/>
			<point x="302" y="-12"/>
			<point x="356" y="20"/>
			<point x="400" y="92" type="curve"/>
			<point x="402" y="92" type="line"/>
			<point x="400" y="20"/>
			<point x="412" y="-8"/>
			<point x="456" y="-8" type="curve" smooth="yes"/>
			<point x="470" y="-8"/>
			<point x="482" y="-4"/>
			<point x="492" y="0" type="curve"/>
			<point x="486" y="26" type="line"/>
			<point x="474" y="22"/>
			<point x="468" y="20"/>
			<point x="458" y="20" type="curve" smooth="yes"/>
			<point x="442" y="20"/>
			<point x="430" y="32"/>
			<point x="430" y="56" type="curve" smooth="yes"/>
			<point x="430" y="198"/>
			<point x="430" y="334"/>
			<point x="432" y="478" type="curve"/>
			<point x="402" y="478" type="line"/>
			<point x="402" y="134" type="line"/>
			<point x="341" y="29"/>
			<point x="290" y="16"/>
			<point x="238" y="16" type="curve" smooth="yes"/>
			<point x="158" y="16"/>
			<point x="126" y="76"/>
			<point x="126" y="174" type="curve" smooth="yes"/>
			<point x="126" y="478" type="line"/>
			<point x="96" y="478" type="line"/>
		</contour>
	</outline>
	<anchor name="aboveLC" x="270" y="502"/>
	<anchor name="belowLC" x="280" y="-182"/>
</glyph>
<glyph name="Hbar" format="2">
	<unicode hex="0126"/>
	<advance width="674"/>
	<outline>
		<contour>
			<point x="22" y="496" type="line"/>
			<point x="648" y="496" type="line"/>
			<point x="648" y="524" type="line"/>
			<point x="122" y="524" type="line"/>
			<point x="22" y="520" type="line"/>
		</contour>
		<component base="H" xOffset="20"/>
	</outline>
</glyph>
<glyph name="hbar" format="2">
	<unicode hex="0127"/>
	<advance width="542"/>
	<outline>
		<contour>
			<point x="116" y="0" type="line"/>
			<point x="146" y="0" type="line"/>
			<point x="146" y="334" type="line"/>
			<point x="208" y="398"/>
			<point x="252" y="430"/>
			<point x="312" y="430" type="curve" smooth="yes"/>
			<point x="394" y="430"/>
			<point x="428" y="378"/>
			<point x="428" y="272" type="curve" smooth="yes"/>
			<point x="428" y="0" type="line"/>
			<point x="458" y="0" type="line"/>
			<point x="458" y="276" type="line" smooth="yes"/>
			<point x="458" y="400"/>
			<point x="412" y="458"/>
			<point x="314" y="458" type="curve" smooth="yes"/>
			<point x="248" y="458"/>
			<point x="198" y="420"/>
			<point x="146" y="368" type="curve"/>
			<point x="146" y="476" type="line"/>
			<point x="146" y="722" type="line"/>
			<point x="116" y="722" type="line"/>
		</contour>
		<contour>
			<point x="22" y="584" type="line"/>
			<point x="338" y="584" type="line"/>
			<point x="338" y="612" type="line"/>
			<point x="116" y="612" type="line"/>
			<point x="22" y="608" type="line"/>
		</contour>
	</outline>
</glyph>
<glyph name="IJ" format="2">
	<unicode hex="0132"/>
	<advance width="464"/>
	<outline>
		<contour>
			<point x="100" y="0" type="line"/>
			<point x="132" y="0" type="line"/>
			<point x="132" y="660" type="line"/>
			<point x="100" y="660" type="line"/>
		</contour>
		<contour>
			<point x="264" y="-152" type="curve" smooth="yes"/>
			<point x="330" y="-152"/>
			<point x="364" y="-112"/>
			<point x="364" y="-20" type="curve" smooth="yes"/>
			<point x="364" y="660" type="line"/>
			<point x="332" y="660" type="line"/>
			<point x="332" y="-12" type="line" smooth="yes"/>
			<point x="332" y="-74"/>
			<point x="322" y="-120"/>
			<point x="266" y="-120" type="curve" smooth="yes"/>
			<point x="246" y="-120"/>
			<point x="226" y="-114"/>
			<point x="214" y="-110" type="curve"/>
			<point x="206" y="-140" type="line"/>
			<point x="220" y="-146"/>
			<point x="244" y="-152"/>
		</contour>
	</outline>
</glyph>
<glyph name="Bhook" format="2">
	<unicode hex="0181"/>
	<advance width="704"/>
	<outline>
		<contour>
			<point x="260" y="0" type="line"/>
			<point x="414" y="0" type="line" smooth="yes"/>
			<point x="564" y="0"/>
			<point x="658" y="66"/>
			<point x="658" y="192" type="curve" smooth="yes"/>
			<point x="658" y="284"/>
			<point x="600" y="338"/>
			<point x="512" y="352" type="curve"/>
			<point x="512" y="356" type="line"/>
			<point x="580" y="376"/>
			<point x="616" y="433"/>
			<point x="616" y="506" type="curve" smooth="yes"/>
			<point x="616" y="620"/>
			<point x="518" y="672"/>
			<point x="358" y="672" type="curve" smooth="yes"/>
			<point x="147" y="672"/>
			<point x="48" y="578"/>
			<point x="48" y="446" type="curve" smooth="yes"/>
			<point x="48" y="356"/>
			<point x="90" y="302"/>
			<point x="156" y="270" type="curve"/>
			<point x="172" y="294" type="line"/>
			<point x="110" y="328"/>
			<point x="82" y="370"/>
			<point x="82" y="446" type="curve" smooth="yes"/>
			<point x="82" y="558"/>
			<point x="169" y="642"/>
			<point x="356" y="642" type="curve" smooth="yes"/>
			<point x="360" y="642" type="line" smooth="yes"/>
			<point x="506" y="642"/>
			<point x="584" y="604"/>
			<point x="584" y="504" type="curve" smooth="yes"/>
			<point x="584" y="418"/>
			<point x="526" y="366"/>
			<point x="382" y="366" type="curve" smooth="yes"/>
			<point x="292" y="366" type="line"/>
			<point x="292" y="660" type="line"/>
			<point x="260" y="660" type="line"/>
		</contour>
		<contour>
			<point x="292" y="28" type="line"/>
			<point x="292" y="338" type="line"/>
			<point x="402" y="338" type="line" smooth="yes"/>
			<point x="544" y="338"/>
			<point x="626" y="290"/>
			<point x="626" y="190" type="curve" smooth="yes"/>
			<point x="626" y="78"/>
			<point x="540" y="28"/>
			<point x="402" y="28" type="curve" smooth="yes"/>
		</contour>
	</outline>
	<anchor name="aboveUC" x="420" y="682"/>
	<anchor name="belowLC" x="440" y="-22"/>
</glyph>
<glyph name="Dhook" format="2">
	<unicode hex="018A"/>
	<advance width="740"/>
	<outline>
		<contour>
			<point x="260" y="0" type="line"/>
			<point x="380" y="0" type="line" smooth="yes"/>
			<point x="580" y="0"/>
			<point x="674" y="138"/>
			<point x="674" y="340" type="curve" smooth="yes"/>
			<point x="674" y="540"/>
			<point x="582" y="672"/>
			<point x="358" y="672" type="curve" smooth="yes"/>
			<point x="146" y="672"/>
			<point x="48" y="578"/>
			<point x="48" y="446" type="curve" smooth="yes"/>
			<point x="48" y="356"/>
			<point x="90" y="302"/>
			<point x="156" y="270" type="curve"/>
			<point x="172" y="294" type="line"/>
			<point x="110" y="328"/>
			<point x="82" y="370"/>
			<point x="82" y="446" type="curve" smooth="yes"/>
			<point x="82" y="558"/>
			<point x="168" y="642"/>
			<point x="356" y="642" type="curve" smooth="yes"/>
			<point x="360" y="642" type="line" smooth="yes"/>
			<point x="564" y="642"/>
			<point x="640" y="516"/>
			<point x="640" y="340" type="curve" smooth="yes"/>
			<point x="640" y="161"/>
			<point x="560" y="28"/>
			<point x="374" y="28" type="curve" smooth="yes"/>
			<point x="292" y="28" type="line"/>
			<point x="292" y="660" type="line"/>
			<point x="260" y="660" type="line"/>
		</contour>
	</outline>
	<anchor name="aboveUC" x="420" y="682"/>
	<anchor name="belowLC" x="430" y="-22"/>
</glyph>
<glyph name="florin" format="2">
	<unicode hex="0192"/>
	<advance width="252"/>
	<outline>
		<contour>
			<point x="32" y="-234" type="curve" smooth="yes"/>
			<point x="98" y="-234"/>
			<point x="130" y="-194"/>
			<point x="130" y="-102" type="curve" smooth="yes"/>
			<point x="130" y="592" type="line" smooth="yes"/>
			<point x="130" y="664"/>
			<point x="154" y="706"/>
			<point x="208" y="706" type="curve" smooth="yes"/>
			<point x="226" y="706"/>
			<point x="245" y="702"/>
			<point x="266" y="694" type="curve"/>
			<point x="276" y="718" type="line"/>
			<point x="256" y="728"/>
			<point x="230" y="734"/>
			<point x="210" y="734" type="curve" smooth="yes"/>
			<point x="142" y="734"/>
			<point x="100" y="690"/>
			<point x="100" y="596" type="curve" smooth="yes"/>
			<point x="100" y="-98" type="line" smooth="yes"/>
			<point x="100" y="-160"/>
			<point x="90" y="-206"/>
			<point x="34" y="-206" type="curve" smooth="yes"/>
			<point x="16" y="-206"/>
			<point x="-6" y="-200"/>
			<point x="-18" y="-196" type="curve"/>
			<point x="-26" y="-220" type="line"/>
			<point x="-12" y="-228"/>
			<point x="14" y="-234"/>
		</contour>
		<contour>
			<point x="34" y="450" type="line"/>
			<point x="244" y="450" type="line"/>
			<point x="244" y="478" type="line"/>
			<point x="100" y="478" type="line"/>
			<point x="34" y="474" type="line"/>
		</contour>
	</outline>
	<anchor name="aboveUC" x="200" y="732"/>
	<anchor name="belowLC" x="50" y="-222"/>
</glyph>
<glyph name="Gammalatin" format="2">
	<unicode hex="0194"/>
	<advance width="482"/>
	<outline>
		<contour>
			<point x="238" y="-234" type="curve" smooth="yes"/>
			<point x="296" y="-234"/>
			<point x="322" y="-196"/>
			<point x="322" y="-142" type="curve" smooth="yes"/>
			<point x="322" y="-96"/>
			<point x="292" y="-36"/>
			<point x="250" y="47" type="curve"/>
			<point x="250" y="4" type="line"/>
			<point x="476" y="660" type="line"/>
			<point x="444" y="660" type="line"/>
			<point x="312" y="276" type="line" smooth="yes"/>
			<point x="284" y="194"/>
			<point x="268" y="138"/>
			<point x="240" y="54" type="curve"/>
			<point x="236" y="54" type="line"/>
			<point x="208" y="138"/>
			<point x="191" y="194"/>
			<point x="164" y="276" type="curve" smooth="yes"/>
			<point x="40" y="660" type="line"/>
			<point x="6" y="660" type="line"/>
			<point x="226" y="4" type="line"/>
			<point x="226" y="48" type="line"/>
			<point x="184" y="-36"/>
			<point x="154" y="-96"/>
			<point x="154" y="-142" type="curve" smooth="yes"/>
			<point x="154" y="-196"/>
			<point x="180" y="-234"/>
		</contour>
		<contour>
			<point x="238" y="-206" type="curve" smooth="yes"/>
			<point x="200" y="-206"/>
			<point x="186" y="-178"/>
			<point x="186" y="-144" type="curve" smooth="yes"/>
			<point x="186" y="-102"/>
			<point x="206" y="-51"/>
			<point x="236" y="2" type="curve"/>
			<point x="240" y="2" type="line"/>
			<point x="270" y="-51"/>
			<point x="290" y="-102"/>
			<point x="290" y="-144" type="curve" smooth="yes"/>
			<point x="290" y="-178"/>
			<point x="276" y="-206"/>
		</contour>
	</outline>
	<anchor name="aboveUC" x="240" y="682"/>
	<anchor name="belowLC" x="240" y="-222"/>
</glyph>
<glyph name="lbar" format="2">
	<unicode hex="019A"/>
	<advance width="260"/>
	<outline>
		<contour>
			<point x="22" y="386" type="line"/>
			<point x="234" y="386" type="line"/>
			<point x="234" y="414" type="line"/>
			<point x="116" y="414" type="line"/>
			<point x="22" y="410" type="line"/>
		</contour>
		<component base="l" xOffset="20"/>
	</outline>
	<anchor name="aboveUC" x="130" y="732"/>
	<anchor name="belowLC" x="150" y="-22"/>
</glyph>
<glyph name="Oogonek" format="2">
	<unicode hex="01EA"/>
	<advance width="648"/>
	<outline>
		<contour>
			<point x="336" y="-214" type="curve" smooth="yes"/>
			<point x="366" y="-214"/>
			<point x="392" y="-200"/>
			<point x="408" y="-186" type="curve"/>
			<point x="394" y="-166" type="line"/>
			<point x="376" y="-180"/>
			<point x="360" y="-186"/>
			<point x="338" y="-186" type="curve" smooth="yes"/>
			<point x="308" y="-186"/>
			<point x="278" y="-168"/>
			<point x="278" y="-126" type="curve" smooth="yes"/>
			<point x="278" y="-92"/>
			<point x="304" y="-32"/>
			<point x="400" y="0" type="curve" smooth="yes"/>
			<point x="500" y="33"/>
			<point x="592" y="138"/>
			<point x="592" y="332" type="curve" smooth="yes"/>
			<point x="592" y="540"/>
			<point x="480" y="672"/>
			<point x="324" y="672" type="curve" smooth="yes"/>
			<point x="168" y="672"/>
			<point x="56" y="540"/>
			<point x="56" y="332" type="curve" smooth="yes"/>
			<point x="56" y="124"/>
			<point x="168" y="-12"/>
			<point x="324" y="-12" type="curve"/>
			<point x="346" y="4" type="line"/>
			<point x="274" y="-30"/>
			<point x="248" y="-90"/>
			<point x="248" y="-128" type="curve" smooth="yes"/>
			<point x="248" y="-188"/>
			<point x="288" y="-214"/>
		</contour>
		<contour>
			<point x="324" y="18" type="curve" smooth="yes"/>
			<point x="184" y="18"/>
			<point x="90" y="142"/>
			<point x="90" y="332" type="curve" smooth="yes"/>
			<point x="90" y="522"/>
			<point x="184" y="642"/>
			<point x="324" y="642" type="curve" smooth="yes"/>
			<point x="464" y="642"/>
			<point x="558" y="522"/>
			<point x="558" y="332" type="curve" smooth="yes"/>
			<point x="558" y="142"/>
			<point x="464" y="18"/>
		</contour>
	</outline>
	<anchor name="aboveUC" x="320" y="682"/>
	<anchor name="belowLC" x="320" y="-222"/>
</glyph>
<glyph name="ou" format="2">
	<unicode hex="0223"/>
	<advance width="522"/>
	<outline>
		<contour>
			<point x="266" y="16" type="curve" smooth="yes"/>
			<point x="159" y="16"/>
			<point x="82" y="93"/>
			<point x="82" y="185" type="curve" smooth="yes"/>
			<point x="82" y="274"/>
			<point x="132" y="342"/>
			<point x="238" y="388" type="curve"/>
			<point x="360" y="344"/>
			<point x="440" y="298"/>
			<point x="440" y="174" type="curve" smooth="yes"/>
			<point x="440" y="89"/>
			<point x="372" y="16"/>
		</contour>
		<contour>
			<point x="266" y="-12" type="curve" smooth="yes"/>
			<point x="390" y="-12"/>
			<point x="472" y="71"/>
			<point x="472" y="174" type="curve" smooth="yes"/>
			<point x="472" y="287"/>
			<point x="399" y="349"/>
			<point x="330" y="384" type="curve"/>
			<point x="330" y="388" type="line"/>
			<point x="390" y="431"/>
			<point x="446" y="493"/>
			<point x="446" y="584" type="curve" smooth="yes"/>
			<point x="446" y="635"/>
			<point x="432" y="680"/>
			<point x="400" y="724" type="curve"/>
			<point x="378" y="707" type="line"/>
			<point x="404" y="668"/>
			<point x="414" y="624"/>
			<point x="414" y="582" type="curve" smooth="yes"/>
			<point x="414" y="508"/>
			<point x="375" y="448"/>
			<point x="296" y="398" type="curve"/>
			<point x="204" y="438"/>
			<point x="116" y="482"/>
			<point x="116" y="592" type="curve" smooth="yes"/>
			<point x="116" y="641"/>
			<point x="126" y="684"/>
			<point x="150" y="720" type="curve"/>
			<point x="128" y="734" type="line"/>
			<point x="98" y="692"/>
			<point x="84" y="650"/>
			<point x="84" y="590" type="curve" smooth="yes"/>
			<point x="84" y="505"/>
			<point x="134" y="450"/>
			<point x="210" y="408" type="curve"/>
			<point x="210" y="404" type="line"/>
			<point x="117" y="370"/>
			<point x="50" y="290"/>
			<point x="50" y="185" type="curve" smooth="yes"/>
			<point x="50" y="73"/>
			<point x="141" y="-12"/>
		</contour>
	</outline>
	<anchor name="aboveUC" x="260" y="732"/>
	<anchor name="belowLC" x="260" y="-22"/>
</glyph>
<glyph name="lretroflex" format="2">
	<unicode hex="026D"/>
	<advance width="230"/>
	<outline>
		<contour>
			<point x="184" y="-234" type="curve" smooth="yes"/>
			<point x="200" y="-234"/>
			<point x="222" y="-228"/>
			<point x="232" y="-222" type="curve"/>
			<point x="224" y="-198" type="line"/>
			<point x="214" y="-202"/>
			<point x="198" y="-206"/>
			<point x="182" y="-206" type="curve" smooth="yes"/>
			<point x="138" y="-206"/>
			<point x="126" y="-164"/>
			<point x="126" y="-104" type="curve" smooth="yes"/>
			<point x="126" y="722" type="line"/>
			<point x="96" y="722" type="line"/>
			<point x="96" y="-108" type="line" smooth="yes"/>
			<point x="96" y="-198"/>
			<point x="124" y="-234"/>
		</contour>
	</outline>
	<anchor name="aboveUC" x="110" y="732"/>
	<anchor name="belowLC" x="170" y="-222"/>
</glyph>
<glyph name="ysmall" format="2">
	<unicode hex="028F"/>
	<advance width="374"/>
	<outline>
		<contour>
			<point x="172" y="0" type="line"/>
			<point x="202" y="0" type="line"/>
			<point x="202" y="176" type="line"/>
			<point x="370" y="478" type="line"/>
			<point x="336" y="478" type="line"/>
			<point x="250" y="316" type="line"/>
			<point x="231" y="279"/>
			<point x="211" y="245"/>
			<point x="190" y="208" type="curve"/>
			<point x="186" y="208" type="line"/>
			<point x="164" y="245"/>
			<point x="144" y="279"/>
			<point x="124" y="316" type="curve"/>
			<point x="38" y="478" type="line"/>
			<point x="4" y="478" type="line"/>
			<point x="172" y="176" type="line"/>
		</contour>
	</outline>
	<anchor name="aboveLC" x="190" y="502"/>
	<anchor name="belowLC" x="190" y="-22"/>
</glyph>
<glyph name="r.sups" format="2">
	<unicode hex="02B3"/>
	<advance width="214"/>
	<outline>
		<contour>
			<point x="60" y="410" type="line"/>
			<point x="90" y="410" type="line"/>
			<point x="90" y="626" type="line"/>
			<point x="116" y="684"/>
			<point x="149" y="704"/>
			<point x="180" y="704" type="curve" smooth="yes"/>
			<point x="190" y="704"/>
			<point x="202" y="702"/>
			<point x="208" y="700" type="curve"/>
			<point x="216" y="728" type="line"/>
			<point x="208" y="732"/>
			<point x="194" y="734"/>
			<point x="182" y="734" type="curve" smooth="yes"/>
			<point x="144" y="734"/>
			<point x="116" y="710"/>
			<point x="92" y="670" type="curve"/>
			<point x="88" y="670" type="line"/>
			<point x="82" y="726" type="line"/>
			<point x="60" y="726" type="line"/>
		</contour>
	</outline>
</glyph>
<glyph name="downtackmod" format="2">
	<unicode hex="02D5"/>
	<advance width="360"/>
	<outline>
		<contour>
			<point x="164" y="110" type="line"/>
			<point x="194" y="110" type="line"/>
			<point x="194" y="398" type="line"/>
			<point x="326" y="398" type="line"/>
			<point x="326" y="426" type="line"/>
			<point x="34" y="426" type="line"/>
			<point x="34" y="398" type="line"/>
			<point x="164" y="398" type="line"/>
		</contour>
	</outline>
</glyph>
<glyph name="hungarumlautcmb" format="2">
	<unicode hex="030B"/>
	<outline>
		<contour>
			<point x="-90" y="570" type="line"/>
			<point x="-64" y="570" type="line"/>
			<point x="40" y="716" type="line"/>
			<point x="38" y="720" type="line"/>
			<point x="6" y="720" type="line"/>
		</contour>
		<contour>
			<point x="60" y="570" type="line"/>
			<point x="86" y="570" type="line"/>
			<point x="190" y="716" type="line"/>
			<point x="188" y="720" type="line"/>
			<point x="156" y="720" type="line"/>
		</contour>
	</outline>
	<anchor name="_aboveLC" x="0" y="502"/>
</glyph>
<glyph name="candrabinducmb" format="2">
	<unicode hex="0310"/>
	<outline>
		<contour>
			<point x="0" y="570" type="curve" smooth="yes"/>
			<point x="101" y="570"/>
			<point x="138" y="654"/>
			<point x="146" y="716" type="curve"/>
			<point x="120" y="720" type="line"/>
			<point x="112" y="662"/>
			<point x="75" y="596"/>
			<point x="0" y="596" type="curve" smooth="yes"/>
			<point x="-75" y="596"/>
			<point x="-112" y="662"/>
			<point x="-120" y="720" type="curve"/>
			<point x="-146" y="716" type="line"/>
			<point x="-138" y="654"/>
			<point x="-101" y="570"/>
		</contour>
		<contour>
			<point x="0" y="720" type="curve" smooth="yes"/>
			<point x="18" y="720"/>
			<point x="32" y="734"/>
			<point x="32" y="756" type="curve" smooth="yes"/>
			<point x="32" y="776"/>
			<point x="18" y="790"/>
			<point x="0" y="790" type="curve" smooth="yes"/>
			<point x="-18" y="790"/>
			<point x="-32" y="776"/>
			<point x="-32" y="756" type="curve" smooth="yes"/>
			<point x="-32" y="734"/>
			<point x="-18" y="720"/>
		</contour>
	</outline>
	<anchor name="_aboveLC" x="0" y="500"/>
</glyph>
<glyph name="plusbelowcmb" format="2">
	<unicode hex="031F"/>
	<outline>
		<contour>
			<point x="-14" y="-242" type="line"/>
			<point x="14" y="-242" type="line"/>
			<point x="14" y="-166" type="line"/>
			<point x="86" y="-166" type="line"/>
			<point x="86" y="-138" type="line"/>
			<point x="14" y="-138" type="line"/>
			<point x="14" y="-62" type="line"/>
			<point x="-14" y="-62" type="line"/>
			<point x="-14" y="-138" type="line"/>
			<point x="-86" y="-138" type="line"/>
			<point x="-86" y="-166" type="line"/>
			<point x="-14" y="-166" type="line"/>
		</contour>
	</outline>
	<anchor name="_belowLC" x="0" y="-22"/>
</glyph>
<glyph name="tildeoverlaycmb" format="2">
	<unicode hex="0334"/>
	<outline>
		<contour>
			<point x="77" y="196" type="curve" smooth="yes"/>
			<point x="140" y="196"/>
			<point x="156" y="262"/>
			<point x="160" y="318" type="curve"/>
			<point x="134" y="320" type="line"/>
			<point x="132" y="268"/>
			<point x="116" y="222"/>
			<point x="79" y="222" type="curve" smooth="yes"/>
			<point x="20" y="222"/>
			<point x="0" y="322"/>
			<point x="-76" y="322" type="curve" smooth="yes"/>
			<point x="-140" y="322"/>
			<point x="-156" y="257"/>
			<point x="-160" y="200" type="curve"/>
			<point x="-134" y="198" type="line"/>
			<point x="-132" y="252"/>
			<point x="-116" y="296"/>
			<point x="-78" y="296" type="curve" smooth="yes"/>
			<point x="-20" y="296"/>
			<point x="0" y="196"/>
		</contour>
	</outline>
	<anchor name="_center" x="0" y="242"/>
</glyph>
<glyph name="brevedoublebelowcmb" format="2">
	<unicode hex="035C"/>
	<outline>
		<contour>
			<point x="0" y="-234" type="curve" smooth="yes"/>
			<point x="176" y="-234"/>
			<point x="320" y="-186"/>
			<point x="452" y="-104" type="curve"/>
			<point x="440" y="-84" type="line"/>
			<point x="314" y="-164"/>
			<point x="160" y="-206"/>
			<point x="0" y="-206" type="curve" smooth="yes"/>
			<point x="-160" y="-206"/>
			<point x="-314" y="-164"/>
			<point x="-440" y="-84" type="curve"/>
			<point x="-452" y="-104" type="line"/>
			<point x="-320" y="-186"/>
			<point x="-176" y="-234"/>
		</contour>
	</outline>
</glyph>
<glyph name="Pi" format="2">
	<unicode hex="03A0"/>
	<advance width="630"/>
	<outline>
		<contour>
			<point x="100" y="0" type="line"/>
			<point x="132" y="0" type="line"/>
			<point x="132" y="632" type="line"/>
			<point x="498" y="632" type="line"/>
			<point x="498" y="0" type="line"/>
			<point x="530" y="0" type="line"/>
			<point x="530" y="660" type="line"/>
			<point x="100" y="660" type="line"/>
		</contour>
	</outline>
</glyph>
<glyph name="epsilon" format="2">
	<unicode hex="03B5"/>
	<advance width="430"/>
	<outline>
		<contour>
			<point x="238" y="-12" type="curve" smooth="yes"/>
			<point x="310" y="-12"/>
			<point x="355" y="6"/>
			<point x="410" y="51" type="curve"/>
			<point x="393" y="75" type="line"/>
			<point x="341" y="32"/>
			<point x="302" y="16"/>
			<point x="242" y="16" type="curve" smooth="yes"/>
			<point x="146" y="16"/>
			<point x="86" y="60"/>
			<point x="86" y="129" type="curve" smooth="yes"/>
			<point x="86" y="197"/>
			<point x="140" y="238"/>
			<point x="242" y="238" type="curve" smooth="yes"/>
			<point x="264" y="238"/>
			<point x="282" y="238"/>
			<point x="310" y="236" type="curve"/>
			<point x="310" y="268" type="line"/>
			<point x="285" y="266"/>
			<point x="274" y="266"/>
			<point x="256" y="266" type="curve" smooth="yes"/>
			<point x="153" y="266"/>
			<point x="112" y="310"/>
			<point x="112" y="366" type="curve" smooth="yes"/>
			<point x="112" y="432"/>
			<point x="172" y="462"/>
			<point x="242" y="462" type="curve" smooth="yes"/>
			<point x="292" y="462"/>
			<point x="332" y="444"/>
			<point x="374" y="412" type="curve"/>
			<point x="390" y="435" type="line"/>
			<point x="348" y="468"/>
			<point x="302" y="490"/>
			<point x="244" y="490" type="curve" smooth="yes"/>
			<point x="154" y="490"/>
			<point x="80" y="448"/>
			<point x="80" y="368" type="curve" smooth="yes"/>
			<point x="80" y="318"/>
			<point x="108" y="276"/>
			<point x="158" y="256" type="curve"/>
			<point x="158" y="252" type="line"/>
			<point x="106" y="238"/>
			<point x="54" y="200"/>
			<point x="54" y="128" type="curve" smooth="yes"/>
			<point x="54" y="46"/>
			<point x="124" y="-12"/>
		</contour>
	</outline>
	<anchor name="aboveLC" x="240" y="502"/>
	<anchor name="belowLC" x="230" y="-22"/>
</glyph>
<glyph name="digamma" format="2">
	<unicode hex="03DD"/>
	<advance width="398"/>
	<outline>
		<contour>
			<point x="96" y="-180" type="line"/>
			<point x="126" y="-180" type="line"/>
			<point x="126" y="-60"/>
			<point x="126" y="44"/>
			<point x="126" y="158" type="curve"/>
			<point x="352" y="158" type="line"/>
			<point x="352" y="186" type="line"/>
			<point x="126" y="186" type="line"/>
			<point x="124" y="450" type="line"/>
			<point x="372" y="450" type="line"/>
			<point x="372" y="478" type="line"/>
			<point x="96" y="478" type="line"/>
		</contour>
	</outline>
	<anchor name="aboveLC" x="250" y="502"/>
	<anchor name="belowLC" x="250" y="-182"/>
</glyph>
<glyph name="Be" format="2">
	<unicode hex="0411"/>
	<advance width="564"/>
	<outline>
		<contour>
			<point x="100" y="0" type="line"/>
			<point x="290" y="0" type="line" smooth="yes"/>
			<point x="440" y="0"/>
			<point x="518" y="66"/>
			<point x="518" y="192" type="curve" smooth="yes"/>
			<point x="518" y="314"/>
			<point x="428" y="366"/>
			<point x="286" y="366" type="curve" smooth="yes"/>
			<point x="132" y="366" type="line"/>
			<point x="132" y="632" type="line"/>
			<point x="474" y="632" type="line"/>
			<point x="474" y="660" type="line"/>
			<point x="100" y="660" type="line"/>
		</contour>
		<contour>
			<point x="132" y="28" type="line"/>
			<point x="132" y="338" type="line"/>
			<point x="274" y="338" type="line" smooth="yes"/>
			<point x="414" y="338"/>
			<point x="486" y="294"/>
			<point x="486" y="190" type="curve" smooth="yes"/>
			<point x="486" y="78"/>
			<point x="416" y="28"/>
			<point x="278" y="28" type="curve" smooth="yes"/>
		</contour>
	</outline>
</glyph>
<glyph name="en" format="2">
	<unicode hex="043D"/>
	<advance width="546"/>
	<outline>
		<contour>
			<point x="96" y="0" type="line"/>
			<point x="126" y="0" type="line"/>
			<point x="126" y="238" type="line"/>
			<point x="420" y="238" type="line"/>
			<point x="420" y="0" type="line"/>
			<point x="450" y="0" type="line"/>
			<point x="450" y="478" type="line"/>
			<point x="420" y="478" type="line"/>
			<point x="420" y="266" type="line"/>
			<point x="126" y="266" type="line"/>
			<point x="126" y="478" type="line"/>
			<point x="96" y="478" type="line"/>
		</contour>
	</outline>
</glyph>
<glyph name="te" format="2">
	<unicode hex="0442"/>
	<advance width="434"/>
	<outline>
		<contour>
			<point x="202" y="0" type="line"/>
			<point x="232" y="0" type="line"/>
			<point x="232" y="450" type="line"/>
			<point x="408" y="450" type="line"/>
			<point x="408" y="478" type="line"/>
			<point x="26" y="478" type="line"/>
			<point x="26" y="450" type="line"/>
			<point x="202" y="450" type="line"/>
		</contour>
	</outline>
</glyph>
<glyph name="izhitsa" format="2">
	<unicode hex="0475"/>
	<advance width="432"/>
	<outline>
		<contour>
			<point x="194" y="0" type="line"/>
			<point x="234" y="0" type="line"/>
			<point x="360" y="374" type="line" smooth="yes"/>
			<point x="380" y="432"/>
			<point x="394" y="456"/>
			<point x="422" y="456" type="curve" smooth="yes"/>
			<point x="432" y="456"/>
			<point x="438" y="454"/>
			<point x="444" y="450" type="curve"/>
			<point x="454" y="482" type="line"/>
			<point x="442" y="488"/>
			<point x="433" y="490"/>
			<point x="424" y="490" type="curve" smooth="yes"/>
			<point x="376" y="490"/>
			<point x="356" y="456"/>
			<point x="330" y="378" type="curve" smooth="yes"/>
			<point x="260" y="168" type="line" smooth="yes"/>
			<point x="245" y="122"/>
			<point x="230" y="74"/>
			<point x="216" y="32" type="curve"/>
			<point x="212" y="32" type="line"/>
			<point x="196" y="74"/>
			<point x="176" y="122"/>
			<point x="160" y="168" type="curve" smooth="yes"/>
			<point x="46" y="478" type="line"/>
			<point x="12" y="478" type="line"/>
		</contour>
	</outline>
	<anchor name="aboveLC" x="230" y="502"/>
</glyph>
<glyph name="gheup" format="2">
	<unicode hex="0491"/>
	<advance width="402"/>
	<outline>
		<contour>
			<point x="96" y="0" type="line"/>
			<point x="126" y="0" type="line"/>
			<point x="126" y="450" type="line"/>
			<point x="376" y="450" type="line"/>
			<point x="384" y="650" type="line"/>
			<point x="360" y="650" type="line"/>
			<point x="348" y="478" type="line"/>
			<point x="96" y="478" type="line"/>
		</contour>
	</outline>
</glyph>
<glyph name="J.sups" format="2">
	<unicode hex="1D36"/>
	<advance width="303"/>
	<outline>
		<contour>
			<point x="131" y="402" type="curve" smooth="yes"/>
			<point x="210" y="402"/>
			<point x="241" y="457"/>
			<point x="241" y="527" type="curve" smooth="yes"/>
			<point x="241" y="842" type="line"/>
			<point x="212" y="842" type="line"/>
			<point x="212" y="530" type="line" smooth="yes"/>
			<point x="212" y="460"/>
			<point x="185" y="428"/>
			<point x="131" y="428" type="curve" smooth="yes"/>
			<point x="95" y="428"/>
			<point x="69" y="443"/>
			<point x="47" y="479" type="curve"/>
			<point x="25" y="465" type="line"/>
			<point x="47" y="426"/>
			<point x="82" y="402"/>
		</contour>
	</outline>
</glyph>
<glyph name="U.sups" format="2">
	<unicode hex="1D41"/>
	<advance width="418"/>
	<outline>
		<contour>
			<point x="209" y="402" type="curve" smooth="yes"/>
			<point x="283" y="402"/>
			<point x="356" y="441"/>
			<point x="356" y="575" type="curve" smooth="yes"/>
			<point x="356" y="842" type="line"/>
			<point x="329" y="842" type="line"/>
			<point x="329" y="579" type="line" smooth="yes"/>
			<point x="329" y="463"/>
			<point x="272" y="428"/>
			<point x="209" y="428" type="curve" smooth="yes"/>
			<point x="147" y="428"/>
			<point x="91" y="463"/>
			<point x="91" y="579" type="curve" smooth="yes"/>
			<point x="91" y="842" type="line"/>
			<point x="62" y="842" type="line"/>
			<point x="62" y="575" type="line" smooth="yes"/>
			<point x="62" y="441"/>
			<point x="135" y="402"/>
		</contour>
	</outline>
</glyph>
<glyph name="schwa.sups" format="2">
	<unicode hex="1D4A"/>
	<advance width="328"/>
	<outline>
		<contour>
			<point x="160" y="402" type="curve" smooth="yes"/>
			<point x="230" y="402"/>
			<point x="294" y="462"/>
			<point x="294" y="568" type="curve" smooth="yes"/>
			<point x="294" y="676"/>
			<point x="234" y="734"/>
			<point x="158" y="734" type="curve" smooth="yes"/>
			<point x="110" y="734"/>
			<point x="80" y="718"/>
			<point x="52" y="700" type="curve"/>
			<point x="64" y="680" type="line"/>
			<point x="90" y="696"/>
			<point x="118" y="708"/>
			<point x="158" y="708" type="curve" smooth="yes"/>
			<point x="212" y="708"/>
			<point x="264" y="664"/>
			<point x="264" y="568" type="curve" smooth="yes"/>
			<point x="264" y="474"/>
			<point x="216" y="428"/>
			<point x="160" y="428" type="curve" smooth="yes"/>
			<point x="94" y="428"/>
			<point x="56" y="468"/>
			<point x="56" y="564" type="curve"/>
			<point x="48" y="552" type="line"/>
			<point x="282" y="552" type="line"/>
			<point x="282" y="578" type="line"/>
			<point x="30" y="578" type="line"/>
			<point x="28" y="568"/>
			<point x="28" y="562"/>
			<point x="28" y="554" type="curve" smooth="yes"/>
			<point x="28" y="458"/>
			<point x="74" y="402"/>
		</contour>
	</outline>
</glyph>
<glyph name="rupeeindian" format="2">
	<unicode hex="20B9"/>
	<advance width="472"/>
	<outline>
		<contour>
			<point x="74" y="292" type="line"/>
			<point x="166" y="292" type="line" smooth="yes"/>
			<point x="292" y="292"/>
			<point x="376" y="354"/>
			<point x="376" y="478" type="curve" smooth="yes"/>
			<point x="376" y="540"/>
			<point x="340" y="590"/>
			<point x="290" y="612" type="curve"/>
			<point x="440" y="612" type="line"/>
			<point x="440" y="640" type="line"/>
			<point x="74" y="640" type="line"/>
			<point x="74" y="612" type="line"/>
			<point x="150" y="612" type="line" smooth="yes"/>
			<point x="272" y="612"/>
			<point x="344" y="574"/>
			<point x="344" y="476" type="curve" smooth="yes"/>
			<point x="344" y="368"/>
			<point x="272" y="320"/>
			<point x="150" y="320" type="curve" smooth="yes"/>
			<point x="74" y="320" type="line"/>
		</contour>
		<contour>
			<point x="74" y="476" type="line"/>
			<point x="440" y="476" type="line"/>
			<point x="440" y="504" type="line"/>
			<point x="140" y="504" type="line"/>
			<point x="74" y="500" type="line"/>
		</contour>
		<contour>
			<point x="362" y="0" type="line"/>
			<point x="400" y="0" type="line"/>
			<point x="182" y="310" type="line"/>
			<point x="156" y="294" type="line"/>
		</contour>
	</outline>
</glyph>
<glyph name="soundcopyright" format="2">
	<unicode hex="2117"/>
	<advance width="738"/>
	<outline>
		<contour>
			<point x="370" y="-12" type="curve" smooth="yes"/>
			<point x="542" y="-12"/>
			<point x="688" y="120"/>
			<point x="688" y="322" type="curve" smooth="yes"/>
			<point x="688" y="522"/>
			<point x="542" y="652"/>
			<point x="370" y="652" type="curve" smooth="yes"/>
			<point x="198" y="652"/>
			<point x="52" y="522"/>
			<point x="52" y="322" type="curve" smooth="yes"/>
			<point x="52" y="120"/>
			<point x="198" y="-12"/>
		</contour>
		<contour>
			<point x="370" y="14" type="curve" smooth="yes"/>
			<point x="216" y="14"/>
			<point x="82" y="138"/>
			<point x="82" y="322" type="curve" smooth="yes"/>
			<point x="82" y="504"/>
			<point x="216" y="626"/>
			<point x="370" y="626" type="curve" smooth="yes"/>
			<point x="524" y="626"/>
			<point x="658" y="504"/>
			<point x="658" y="322" type="curve" smooth="yes"/>
			<point x="658" y="138"/>
			<point x="524" y="14"/>
		</contour>
		<contour>
			<point x="264" y="140" type="line"/>
			<point x="296" y="140" type="line"/>
			<point x="296" y="274" type="line"/>
			<point x="396" y="274" type="line" smooth="yes"/>
			<point x="470" y="274"/>
			<point x="526" y="316"/>
			<point x="526" y="394" type="curve" smooth="yes"/>
			<point x="526" y="464"/>
			<point x="470" y="500"/>
			<point x="396" y="500" type="curve" smooth="yes"/>
			<point x="264" y="500" type="line"/>
		</contour>
		<contour>
			<point x="296" y="302" type="line"/>
			<point x="296" y="472" type="line"/>
			<point x="384" y="472" type="line" smooth="yes"/>
			<point x="450" y="472"/>
			<point x="492" y="448"/>
			<point x="492" y="394" type="curve" smooth="yes"/>
			<point x="492" y="330"/>
			<point x="450" y="302"/>
			<point x="384" y="302" type="curve" smooth="yes"/>
		</contour>
	</outline>
</glyph>
<glyph name="partialdiff" format="2">
	<unicode hex="2202"/>
	<advance width="488"/>
	<outline>
		<contour>
			<point x="204" y="-12" type="curve" smooth="yes"/>
			<point x="354" y="-12"/>
			<point x="452" y="140"/>
			<point x="452" y="362" type="curve" smooth="yes"/>
			<point x="452" y="588"/>
			<point x="366" y="672"/>
			<point x="258" y="672" type="curve" smooth="yes"/>
			<point x="202" y="672"/>
			<point x="152" y="648"/>
			<point x="118" y="610" type="curve"/>
			<point x="136" y="590" type="line"/>
			<point x="168" y="624"/>
			<point x="212" y="644"/>
			<point x="256" y="644" type="curve" smooth="yes"/>
			<point x="348" y="644"/>
			<point x="420" y="574"/>
			<point x="420" y="362" type="curve" smooth="yes"/>
			<point x="420" y="174"/>
			<point x="344" y="16"/>
			<point x="206" y="16" type="curve" smooth="yes"/>
			<point x="130" y="16"/>
			<point x="66" y="82"/>
			<point x="66" y="178" type="curve" smooth="yes"/>
			<point x="66" y="276"/>
			<point x="118" y="368"/>
			<point x="250" y="368" type="curve" smooth="yes"/>
			<point x="302" y="368"/>
			<point x="360" y="344"/>
			<point x="418" y="278" type="curve"/>
			<point x="422" y="314" type="line"/>
			<point x="376" y="364"/>
			<point x="314" y="396"/>
			<point x="252" y="396" type="curve" smooth="yes"/>
			<point x="110" y="396"/>
			<point x="34" y="304"/>
			<point x="34" y="176" type="curve" smooth="yes"/>
			<point x="34" y="58"/>
			<point x="116" y="-12"/>
		</contour>
	</outline>
</glyph>
<glyph name="integraltp" format="2">
	<unicode hex="2320"/>
	<advance width="322"/>
	<outline>
		<contour>
			<point x="146" y="-80" type="line"/>
			<point x="176" y="-80" type="line"/>
			<point x="176" y="708" type="line" smooth="yes"/>
			<point x="176" y="818"/>
			<point x="186" y="892"/>
			<point x="244" y="892" type="curve" smooth="yes"/>
			<point x="258" y="892"/>
			<point x="270" y="890"/>
			<point x="278" y="888" type="curve"/>
			<point x="284" y="914" type="line"/>
			<point x="278" y="918"/>
			<point x="262" y="920"/>
			<point x="246" y="920" type="curve" smooth="yes"/>
			<point x="164" y="920"/>
			<point x="146" y="826"/>
			<point x="146" y="706" type="curve" smooth="yes"/>
		</contour>
	</outline>
</glyph>
<glyph name="integralbt" format="2">
	<unicode hex="2321"/>
	<advance width="322"/>
	<outline>
		<contour>
			<point x="76" y="-280" type="curve" smooth="yes"/>
			<point x="156" y="-280"/>
			<point x="176" y="-188"/>
			<point x="176" y="-66" type="curve" smooth="yes"/>
			<point x="176" y="720" type="line"/>
			<point x="146" y="720" type="line"/>
			<point x="146" y="-70" type="line" smooth="yes"/>
			<point x="146" y="-180"/>
			<point x="136" y="-252"/>
			<point x="76" y="-252" type="curve" smooth="yes"/>
			<point x="62" y="-252"/>
			<point x="50" y="-250"/>
			<point x="42" y="-248" type="curve"/>
			<point x="36" y="-274" type="line"/>
			<point x="44" y="-278"/>
			<point x="58" y="-280"/>
		</contour>
	</outline>
</glyph>
<glyph name="Ginsular" format="2">
	<unicode hex="A77D"/>
	<advance width="588"/>
	<outline>
		<contour>
			<point x="304" y="-152" type="curve" smooth="yes"/>
			<point x="476" y="-152"/>
			<point x="562" y="-68"/>
			<point x="562" y="34" type="curve" smooth="yes"/>
			<point x="562" y="128"/>
			<point x="498" y="158"/>
			<point x="358" y="210" type="curve" smooth="yes"/>
			<point x="202" y="268"/>
			<point x="130" y="336"/>
			<point x="130" y="446" type="curve" smooth="yes"/>
			<point x="130" y="536"/>
			<point x="208" y="632"/>
			<point x="385" y="632" type="curve" smooth="yes"/>
			<point x="548" y="632" type="line"/>
			<point x="548" y="660" type="line"/>
			<point x="30" y="660" type="line"/>
			<point x="30" y="632" type="line"/>
			<point x="238" y="632" type="line"/>
			<point x="238" y="628" type="line"/>
			<point x="158" y="600"/>
			<point x="100" y="536"/>
			<point x="100" y="446" type="curve" smooth="yes"/>
			<point x="100" y="334"/>
			<point x="162" y="278"/>
			<point x="239" y="230" type="curve"/>
			<point x="239" y="226" type="line"/>
			<point x="140" y="178"/>
			<point x="64" y="110"/>
			<point x="64" y="18" type="curve" smooth="yes"/>
			<point x="64" y="-98"/>
			<point x="160" y="-152"/>
		</contour>
		<contour>
			<point x="304" y="-122" type="curve" smooth="yes"/>
			<point x="182" y="-122"/>
			<point x="96" y="-75"/>
			<point x="96" y="18" type="curve" smooth="yes"/>
			<point x="96" y="96"/>
			<point x="158" y="158"/>
			<point x="268" y="212" type="curve"/>
			<point x="412" y="154"/>
			<point x="530" y="140"/>
			<point x="530" y="32" type="curve" smooth="yes"/>
			<point x="530" y="-50"/>
			<point x="456" y="-122"/>
		</contour>
	</outline>
	<anchor name="aboveUC" x="310" y="682"/>
	<anchor name="belowLC" x="300" y="-142"/>
	<guideline x="649" y="-152" angle="0" identifier="nvul6JeT8V"/>
</glyph>
<glyph name="tincture" format="2">
	<unicode hex="1F748"/>
	<advance width="616"/>
	<outline>
		<contour>
			<point x="244" y="0" type="line"/>
			<point x="276" y="0" type="line"/>
			<point x="276" y="216" type="line"/>
			<point x="400" y="216" type="line" smooth="yes"/>
			<point x="488" y="216"/>
			<point x="559" y="256"/>
			<point x="559" y="350" type="curve" smooth="yes"/>
			<point x="559" y="444"/>
			<point x="490" y="478"/>
			<point x="392" y="478" type="curve" smooth="yes"/>
			<point x="276" y="478" type="line"/>
			<point x="276" y="632" type="line"/>
			<point x="490" y="632" type="line"/>
			<point x="490" y="660" type="line"/>
			<point x="30" y="660" type="line"/>
			<point x="30" y="632" type="line"/>
			<point x="244" y="632" type="line"/>
		</contour>
		<contour>
			<point x="276" y="244" type="line"/>
			<point x="276" y="450" type="line"/>
			<point x="382" y="450" type="line" smooth="yes"/>
			<point x="471" y="450"/>
			<point x="527" y="421"/>
			<point x="527" y="350" type="curve" smooth="yes"/>
			<point x="527" y="279"/>
			<point x="471" y="244"/>
			<point x="382" y="244" type="curve" smooth="yes"/>
		</contour>
		<contour>
			<point x="534" y="0" type="line"/>
			<point x="570" y="0" type="line"/>
			<point x="418" y="230" type="line"/>
			<point x="392" y="218" type="line"/>
		</contour>
	</outline>
</glyph>
<glyph name="Ettironian.sc" format="2">
	<advance width="374"/>
	<outline>
		<contour>
			<point x="176" y="0" type="line"/>
			<point x="206" y="0" type="line"/>
			<point x="340" y="492" type="line"/>
			<point x="340" y="510" type="line"/>
			<point x="30" y="510" type="line"/>
			<point x="30" y="482" type="line"/>
			<point x="310" y="482" type="line"/>
		</contour>
	</outline>
</glyph>
<glyph name="Gstroke.sc" format="2">
	<advance width="574"/>
	<outline>
		<contour>
			<point x="292" y="-12" type="curve" smooth="yes"/>
			<point x="364" y="-12"/>
			<point x="420" y="11"/>
			<point x="454" y="42" type="curve"/>
			<point x="454" y="248" type="line"/>
			<point x="422" y="248" type="line"/>
			<point x="422" y="57" type="line"/>
			<point x="394" y="33"/>
			<point x="348" y="18"/>
			<point x="295" y="18" type="curve" smooth="yes"/>
			<point x="166" y="18"/>
			<point x="90" y="110"/>
			<point x="90" y="256" type="curve" smooth="yes"/>
			<point x="90" y="402"/>
			<point x="169" y="492"/>
			<point x="300" y="492" type="curve" smooth="yes"/>
			<point x="362" y="492"/>
			<point x="400" y="468"/>
			<point x="428" y="440" type="curve"/>
			<point x="448" y="462" type="line"/>
			<point x="418" y="490"/>
			<point x="374" y="522"/>
			<point x="300" y="522" type="curve" smooth="yes"/>
			<point x="153" y="522"/>
			<point x="56" y="419"/>
			<point x="56" y="256" type="curve" smooth="yes"/>
			<point x="56" y="92"/>
			<point x="149" y="-12"/>
		</contour>
		<contour>
			<point x="288" y="138" type="line"/>
			<point x="548" y="138" type="line"/>
			<point x="548" y="166" type="line"/>
			<point x="424" y="166" type="line"/>
			<point x="288" y="162" type="line"/>
		</contour>
	</outline>
	<anchor name="aboveUC" x="299" y="562"/>
	<anchor name="belowLC" x="292" y="-22"/>
	<guideline x="288" y="172" angle="90" identifier="96u2jX2cG2"/>
</glyph>
<glyph name="Hard.sc" format="2">
	<advance width="608"/>
	<outline>
		<contour>
			<point x="218" y="0" type="line"/>
			<point x="366" y="0" type="line" smooth="yes"/>
			<point x="490" y="0"/>
			<point x="562" y="50"/>
			<point x="562" y="150" type="curve" smooth="yes"/>
			<point x="562" y="246"/>
			<point x="484" y="286"/>
			<point x="364" y="286" type="curve" smooth="yes"/>
			<point x="250" y="286" type="line"/>
			<point x="250" y="510" type="line"/>
			<point x="30" y="510" type="line"/>
			<point x="30" y="482" type="line"/>
			<point x="218" y="482" type="line"/>
		</contour>
		<contour>
			<point x="250" y="28" type="line"/>
			<point x="250" y="258" type="line"/>
			<point x="354" y="258" type="line" smooth="yes"/>
			<point x="470" y="258"/>
			<point x="528" y="226"/>
			<point x="528" y="148" type="curve" smooth="yes"/>
			<point x="528" y="64"/>
			<point x="470" y="28"/>
			<point x="356" y="28" type="curve" smooth="yes"/>
		</contour>
	</outline>
</glyph>
<glyph name="Ka.as" format="2">
	<advance width="480"/>
	<outline>
		<contour>
			<point x="100" y="0" type="line"/>
			<point x="132" y="0" type="line"/>
			<point x="132" y="258" type="line"/>
			<point x="252" y="258" type="line"/>
			<point x="436" y="0" type="line"/>
			<point x="474" y="0" type="line"/>
			<point x="278" y="272" type="line"/>
			<point x="442" y="510" type="line"/>
			<point x="404" y="510" type="line"/>
			<point x="252" y="286" type="line"/>
			<point x="132" y="286" type="line"/>
			<point x="132" y="510" type="line"/>
			<point x="100" y="510" type="line"/>
		</contour>
	</outline>
	<anchor name="aboveUC" x="274" y="532"/>
</glyph>
<glyph name="Lambdabar.sc" format="2">
	<advance width="373"/>
	<outline>
		<contour>
			<point x="30" y="392" type="line"/>
			<point x="344" y="392" type="line"/>
			<point x="344" y="420" type="line"/>
			<point x="112" y="420" type="line"/>
			<point x="30" y="418" type="line"/>
		</contour>
		<component base="Lambda.ls"/>
	</outline>
	<anchor name="aboverightUC" x="330" y="562"/>
	<anchor name="aboveUC" x="190" y="562"/>
	<anchor name="belowLC" x="190" y="-22"/>
</glyph>
<glyph name="Lje.as" format="2">
	<advance width="650"/>
	<outline>
		<contour>
			<point x="6" y="0" type="line"/>
			<point x="37" y="0" type="line"/>
			<point x="143" y="300" type="line" smooth="yes"/>
			<point x="165" y="363"/>
			<point x="179" y="411"/>
			<point x="203" y="473" type="curve"/>
			<point x="206" y="473" type="line"/>
			<point x="229" y="411"/>
			<point x="244" y="363"/>
			<point x="266" y="300" type="curve" smooth="yes"/>
			<point x="371" y="0" type="line"/>
			<point x="408" y="0" type="line" smooth="yes"/>
			<point x="532" y="0"/>
			<point x="604" y="50"/>
			<point x="604" y="150" type="curve" smooth="yes"/>
			<point x="604" y="246"/>
			<point x="526" y="286"/>
			<point x="406" y="286" type="curve" smooth="yes"/>
			<point x="300" y="286" type="line"/>
			<point x="221" y="510" type="line"/>
			<point x="188" y="510" type="line"/>
		</contour>
		<contour>
			<point x="394" y="28" type="line"/>
			<point x="310" y="258" type="line"/>
			<point x="396" y="258" type="line" smooth="yes"/>
			<point x="512" y="258"/>
			<point x="570" y="226"/>
			<point x="570" y="148" type="curve" smooth="yes"/>
			<point x="570" y="64"/>
			<point x="512" y="28"/>
			<point x="398" y="28" type="curve" smooth="yes"/>
		</contour>
	</outline>
</glyph>
<glyph name="Sha.sc" format="2">
	<advance width="732"/>
	<outline>
		<contour>
			<point x="100" y="0" type="line"/>
			<point x="632" y="0" type="line"/>
			<point x="632" y="510" type="line"/>
			<point x="600" y="510" type="line"/>
			<point x="600" y="28" type="line"/>
			<point x="382" y="28" type="line"/>
			<point x="382" y="510" type="line"/>
			<point x="350" y="510" type="line"/>
			<point x="350" y="28" type="line"/>
			<point x="132" y="28" type="line"/>
			<point x="132" y="510" type="line"/>
			<point x="100" y="510" type="line"/>
		</contour>
	</outline>
</glyph>
<glyph name="T.sc" format="2">
	<advance width="448"/>
	<outline>
		<contour>
			<point x="208" y="0" type="line"/>
			<point x="240" y="0" type="line"/>
			<point x="240" y="482" type="line"/>
			<point x="418" y="482" type="line"/>
			<point x="418" y="510" type="line"/>
			<point x="30" y="510" type="line"/>
			<point x="30" y="482" type="line"/>
			<point x="208" y="482" type="line"/>
		</contour>
	</outline>
	<anchor name="aboverightUC" x="420" y="562"/>
	<anchor name="aboveUC" x="224" y="562"/>
	<anchor name="baseLC" x="214" y="0"/>
	<anchor name="belowLC" x="224" y="-22"/>
</glyph>
<glyph name="Their" format="2">
	<advance width="994"/>
	<outline>
		<contour>
			<point x="568" y="252" type="line"/>
			<point x="686" y="208"/>
			<point x="722" y="198"/>
			<point x="802" y="198" type="curve" smooth="yes"/>
			<point x="894" y="198"/>
			<point x="954" y="262"/>
			<point x="954" y="344" type="curve" smooth="yes"/>
			<point x="954" y="378"/>
			<point x="946" y="402"/>
			<point x="930" y="428" type="curve"/>
			<point x="904" y="414" type="line"/>
			<point x="916" y="390"/>
			<point x="920" y="370"/>
			<point x="920" y="342" type="curve" smooth="yes"/>
			<point x="920" y="276"/>
			<point x="868" y="228"/>
			<point x="804" y="228" type="curve" smooth="yes"/>
			<point x="732" y="228"/>
			<point x="690" y="238"/>
			<point x="612" y="264" type="curve"/>
		</contour>
		<component base="They"/>
	</outline>
</glyph>
<glyph name="Ya.sc" format="2">
	<advance width="490"/>
	<outline>
		<contour>
			<point x="358" y="0" type="line"/>
			<point x="390" y="0" type="line"/>
			<point x="390" y="510" type="line"/>
			<point x="234" y="510" type="line" smooth="yes"/>
			<point x="124" y="510"/>
			<point x="56" y="474"/>
			<point x="56" y="376" type="curve" smooth="yes"/>
			<point x="56" y="285"/>
			<point x="123" y="236"/>
			<point x="226" y="236" type="curve" smooth="yes"/>
			<point x="358" y="236" type="line"/>
		</contour>
		<contour>
			<point x="244" y="262" type="line"/>
			<point x="138" y="262"/>
			<point x="88" y="300"/>
			<point x="88" y="376" type="curve" smooth="yes"/>
			<point x="88" y="456"/>
			<point x="142" y="483"/>
			<point x="244" y="483" type="curve" smooth="yes"/>
			<point x="358" y="483" type="line"/>
			<point x="358" y="262" type="line"/>
		</contour>
		<contour>
			<point x="30" y="0" type="line"/>
			<point x="68" y="0" type="line"/>
			<point x="233" y="245" type="line"/>
			<point x="202" y="252" type="line"/>
		</contour>
	</outline>
	<anchor name="aboveUC" x="250" y="562"/>
</glyph>
<glyph name="at.cap" format="2">
	<advance width="744"/>
	<outline>
		<contour>
			<point x="356" y="-16" type="curve" smooth="yes"/>
			<point x="410" y="-16"/>
			<point x="462" y="-2"/>
			<point x="506" y="28" type="curve"/>
			<point x="492" y="50" type="line"/>
			<point x="454" y="24"/>
			<point x="408" y="12"/>
			<point x="358" y="12" type="curve" smooth="yes"/>
			<point x="194" y="12"/>
			<point x="82" y="108"/>
			<point x="82" y="290" type="curve" smooth="yes"/>
			<point x="82" y="508"/>
			<point x="240" y="650"/>
			<point x="412" y="650" type="curve" smooth="yes"/>
			<point x="564" y="650"/>
			<point x="662" y="556"/>
			<point x="662" y="394" type="curve" smooth="yes"/>
			<point x="662" y="258"/>
			<point x="592" y="184"/>
			<point x="534" y="184" type="curve" smooth="yes"/>
			<point x="476" y="184"/>
			<point x="462" y="224"/>
			<point x="484" y="326" type="curve" smooth="yes"/>
			<point x="520" y="492" type="line"/>
			<point x="492" y="492" type="line"/>
			<point x="482" y="452" type="line"/>
			<point x="480" y="452" type="line"/>
			<point x="462" y="484"/>
			<point x="434" y="500"/>
			<point x="402" y="500" type="curve" smooth="yes"/>
			<point x="282" y="500"/>
			<point x="222" y="376"/>
			<point x="222" y="286" type="curve" smooth="yes"/>
			<point x="222" y="208"/>
			<point x="272" y="162"/>
			<point x="326" y="162" type="curve" smooth="yes"/>
			<point x="376" y="162"/>
			<point x="412" y="194"/>
			<point x="446" y="232" type="curve"/>
			<point x="448" y="232" type="line"/>
			<point x="450" y="184"/>
			<point x="482" y="156"/>
			<point x="530" y="156" type="curve" smooth="yes"/>
			<point x="608" y="156"/>
			<point x="692" y="242"/>
			<point x="692" y="396" type="curve" smooth="yes"/>
			<point x="692" y="570"/>
			<point x="580" y="678"/>
			<point x="418" y="678" type="curve" smooth="yes"/>
			<point x="224" y="678"/>
			<point x="52" y="522"/>
			<point x="52" y="288" type="curve" smooth="yes"/>
			<point x="52" y="94"/>
			<point x="180" y="-16"/>
		</contour>
		<contour>
			<point x="330" y="190" type="curve" smooth="yes"/>
			<point x="288" y="190"/>
			<point x="252" y="222"/>
			<point x="252" y="292" type="curve" smooth="yes"/>
			<point x="252" y="374"/>
			<point x="308" y="472"/>
			<point x="398" y="472" type="curve" smooth="yes"/>
			<point x="430" y="472"/>
			<point x="448" y="460"/>
			<point x="474" y="420" type="curve"/>
			<point x="442" y="260" type="line"/>
			<point x="400" y="212"/>
			<point x="362" y="190"/>
		</contour>
	</outline>
</glyph>
<glyph name="aturned.b" format="2">
	<advance width="498"/>
	<outline>
		<contour>
			<point x="280" y="-12" type="curve" smooth="yes"/>
			<point x="348" y="-12"/>
			<point x="414" y="26"/>
			<point x="444" y="50" type="curve"/>
			<point x="428" y="72" type="line"/>
			<point x="398" y="50"/>
			<point x="340" y="16"/>
			<point x="282" y="16" type="curve" smooth="yes"/>
			<point x="158" y="16"/>
			<point x="132" y="108"/>
			<point x="134" y="180" type="curve"/>
			<point x="350" y="205"/>
			<point x="448" y="258"/>
			<point x="448" y="371" type="curve" smooth="yes"/>
			<point x="448" y="455"/>
			<point x="389" y="490"/>
			<point x="320" y="490" type="curve" smooth="yes"/>
			<point x="252" y="490"/>
			<point x="192" y="456"/>
			<point x="136" y="404" type="curve"/>
			<point x="134" y="404" type="line"/>
			<point x="134" y="470"/>
			<point x="116" y="486"/>
			<point x="86" y="486" type="curve" smooth="yes"/>
			<point x="76" y="486"/>
			<point x="64" y="482"/>
			<point x="60" y="480" type="curve"/>
			<point x="66" y="456" type="line"/>
			<point x="74" y="458"/>
			<point x="78" y="458"/>
			<point x="82" y="458" type="curve" smooth="yes"/>
			<point x="94" y="458"/>
			<point x="104" y="448"/>
			<point x="104" y="428" type="curve" smooth="yes"/>
			<point x="104" y="178" type="line" smooth="yes"/>
			<point x="104" y="77"/>
			<point x="144" y="-12"/>
		</contour>
		<contour>
			<point x="134" y="206" type="curve"/>
			<point x="134" y="368" type="line"/>
			<point x="202" y="436"/>
			<point x="262" y="462"/>
			<point x="318" y="462" type="curve" smooth="yes"/>
			<point x="371" y="462"/>
			<point x="416" y="437"/>
			<point x="416" y="370" type="curve" smooth="yes"/>
			<point x="416" y="283"/>
			<point x="344" y="232"/>
		</contour>
	</outline>
	<anchor name="aboveLC" x="290" y="502"/>
	<anchor name="belowLC" x="280" y="-22"/>
	<anchor name="ogonekLC" x="280" y="0"/>
</glyph>
<glyph name="dieresismacron.cap" format="2">
	<outline>
		<contour>
			<point x="-96" y="728" type="curve" smooth="yes"/>
			<point x="-78" y="728"/>
			<point x="-64" y="740"/>
			<point x="-64" y="760" type="curve" smooth="yes"/>
			<point x="-64" y="780"/>
			<point x="-78" y="792"/>
			<point x="-96" y="792" type="curve" smooth="yes"/>
			<point x="-114" y="792"/>
			<point x="-128" y="780"/>
			<point x="-128" y="760" type="curve" smooth="yes"/>
			<point x="-128" y="740"/>
			<point x="-114" y="728"/>
		</contour>
		<contour>
			<point x="96" y="728" type="curve" smooth="yes"/>
			<point x="114" y="728"/>
			<point x="128" y="740"/>
			<point x="128" y="760" type="curve" smooth="yes"/>
			<point x="128" y="780"/>
			<point x="114" y="792"/>
			<point x="96" y="792" type="curve" smooth="yes"/>
			<point x="78" y="792"/>
			<point x="64" y="780"/>
			<point x="64" y="760" type="curve" smooth="yes"/>
			<point x="64" y="740"/>
			<point x="78" y="728"/>
		</contour>
		<contour>
			<point x="-120" y="852" type="line"/>
			<point x="120" y="852" type="line"/>
			<point x="120" y="880" type="line"/>
			<point x="-120" y="880" type="line"/>
		</contour>
	</outline>
	<anchor name="_aboveUC" x="0" y="682"/>
</glyph>
<glyph name="hungarumlautcmb.cap" format="2">
	<outline>
		<contour>
			<point x="-120" y="710" type="line"/>
			<point x="-86" y="710" type="line"/>
			<point x="50" y="826" type="line"/>
			<point x="48" y="830" type="line"/>
			<point x="2" y="830" type="line"/>
		</contour>
		<contour>
			<point x="60" y="710" type="line"/>
			<point x="94" y="710" type="line"/>
			<point x="230" y="826" type="line"/>
			<point x="228" y="830" type="line"/>
			<point x="182" y="830" type="line"/>
		</contour>
	</outline>
	<anchor name="_aboveUC" x="0" y="682"/>
</glyph>
<glyph name="macronacute.cap" format="2">
	<outline>
		<contour>
			<point x="-120" y="746" type="line"/>
			<point x="120" y="746" type="line"/>
			<point x="120" y="774" type="line"/>
			<point x="-120" y="774" type="line"/>
		</contour>
		<contour>
			<point x="-50" y="820" type="line"/>
			<point x="-20" y="820" type="line"/>
			<point x="90" y="916" type="line"/>
			<point x="88" y="920" type="line"/>
			<point x="50" y="920" type="line"/>
		</contour>
	</outline>
	<anchor name="_aboveUC" x="0" y="682"/>
</glyph>
<glyph name="nine.tnum" format="2">
	<advance width="472"/>
	<outline>
		<contour>
			<point x="194" y="-82" type="curve" smooth="yes"/>
			<point x="310" y="-82"/>
			<point x="418" y="10"/>
			<point x="418" y="282" type="curve" smooth="yes"/>
			<point x="418" y="472"/>
			<point x="342" y="582"/>
			<point x="214" y="582" type="curve" smooth="yes"/>
			<point x="117" y="582"/>
			<point x="34" y="494"/>
			<point x="34" y="374" type="curve" smooth="yes"/>
			<point x="34" y="244"/>
			<point x="96" y="170"/>
			<point x="214" y="170" type="curve" smooth="yes"/>
			<point x="284" y="170"/>
			<point x="344" y="208"/>
			<point x="390" y="266" type="curve"/>
			<point x="390" y="306" type="line"/>
			<point x="334" y="228"/>
			<point x="270" y="198"/>
			<point x="216" y="198" type="curve" smooth="yes"/>
			<point x="105" y="198"/>
			<point x="66" y="276"/>
			<point x="66" y="374" type="curve" smooth="yes"/>
			<point x="66" y="474"/>
			<point x="128" y="554"/>
			<point x="212" y="554" type="curve" smooth="yes"/>
			<point x="334" y="554"/>
			<point x="386" y="438"/>
			<point x="386" y="282" type="curve" smooth="yes"/>
			<point x="386" y="32"/>
			<point x="296" y="-54"/>
			<point x="196" y="-54" type="curve" smooth="yes"/>
			<point x="150" y="-54"/>
			<point x="110" y="-36"/>
			<point x="78" y="0" type="curve"/>
			<point x="58" y="-22" type="line"/>
			<point x="92" y="-58"/>
			<point x="134" y="-82"/>
		</contour>
	</outline>
</glyph>
<glyph name="phi.a" format="2">
	<advance width="634"/>
	<outline>
		<contour>
			<point x="302" y="-180" type="line"/>
			<point x="332" y="-180" type="line"/>
			<point x="330" y="-15"/>
			<point x="330" y="149"/>
			<point x="330" y="314" type="curve" smooth="yes"/>
			<point x="330" y="414"/>
			<point x="368" y="462"/>
			<point x="414" y="462" type="curve" smooth="yes"/>
			<point x="488" y="462"/>
			<point x="548" y="368"/>
			<point x="548" y="246" type="curve" smooth="yes"/>
			<point x="548" y="112"/>
			<point x="450" y="16"/>
			<point x="328" y="16" type="curve"/>
			<point x="326" y="-10" type="line"/>
			<point x="460" y="-10"/>
			<point x="580" y="84"/>
			<point x="580" y="246" type="curve" smooth="yes"/>
			<point x="580" y="394"/>
			<point x="512" y="490"/>
			<point x="416" y="490" type="curve" smooth="yes"/>
			<point x="350" y="490"/>
			<point x="302" y="432"/>
			<point x="302" y="327" type="curve" smooth="yes"/>
		</contour>
		<contour>
			<point x="308" y="-10" type="curve"/>
			<point x="308" y="16" type="line"/>
			<point x="194" y="16"/>
			<point x="84" y="86"/>
			<point x="84" y="226" type="curve" smooth="yes"/>
			<point x="84" y="336"/>
			<point x="122" y="399"/>
			<point x="188" y="472" type="curve"/>
			<point x="164" y="490" type="line"/>
			<point x="102" y="417"/>
			<point x="54" y="342"/>
			<point x="54" y="230" type="curve" smooth="yes"/>
			<point x="54" y="64"/>
			<point x="180" y="-10"/>
		</contour>
	</outline>
	<anchor name="aboveLC" x="320" y="502"/>
	<anchor name="belowLC" x="320" y="-182"/>
</glyph>
<glyph name="question.sc" format="2">
	<advance width="394"/>
	<outline>
		<contour>
			<point x="164" y="172" type="curve"/>
			<point x="192" y="172" type="line"/>
			<point x="173" y="286"/>
			<point x="332" y="287"/>
			<point x="332" y="422" type="curve" smooth="yes"/>
			<point x="332" y="487"/>
			<point x="282" y="542"/>
			<point x="192" y="542" type="curve" smooth="yes"/>
			<point x="128" y="542"/>
			<point x="82" y="514"/>
			<point x="46" y="478" type="curve"/>
			<point x="66" y="458" type="line"/>
			<point x="100" y="495"/>
			<point x="144" y="514"/>
			<point x="190" y="514" type="curve" smooth="yes"/>
			<point x="267" y="514"/>
			<point x="300" y="469"/>
			<point x="300" y="420" type="curve" smooth="yes"/>
			<point x="300" y="300"/>
			<point x="143" y="298"/>
		</contour>
		<contour>
			<point x="182" y="-12" type="curve" smooth="yes"/>
			<point x="200" y="-12"/>
			<point x="218" y="2"/>
			<point x="218" y="26" type="curve" smooth="yes"/>
			<point x="218" y="52"/>
			<point x="200" y="66"/>
			<point x="182" y="66" type="curve" smooth="yes"/>
			<point x="164" y="66"/>
			<point x="146" y="52"/>
			<point x="146" y="26" type="curve" smooth="yes"/>
			<point x="146" y="2"/>
			<point x="164" y="-12"/>
		</contour>
	</outline>
</glyph>
<glyph name="ringacute.cap" format="2">
	<outline>
		<contour>
			<point x="0" y="700" type="curve" smooth="yes"/>
			<point x="56" y="700"/>
			<point x="94" y="732"/>
			<point x="94" y="778" type="curve" smooth="yes"/>
			<point x="94" y="827"/>
			<point x="54" y="856"/>
			<point x="0" y="856" type="curve"/>
			<point x="-12" y="848" type="line"/>
			<point x="100" y="916" type="line"/>
			<point x="98" y="920" type="line"/>
			<point x="58" y="920" type="line"/>
			<point x="-54" y="846" type="line" smooth="yes"/>
			<point x="-81" y="828"/>
			<point x="-94" y="808"/>
			<point x="-94" y="778" type="curve" smooth="yes"/>
			<point x="-94" y="732"/>
			<point x="-56" y="700"/>
		</contour>
		<contour>
			<point x="0" y="722" type="curve" smooth="yes"/>
			<point x="-38" y="722"/>
			<point x="-68" y="740"/>
			<point x="-68" y="778" type="curve" smooth="yes"/>
			<point x="-68" y="817"/>
			<point x="-38" y="836"/>
			<point x="0" y="836" type="curve" smooth="yes"/>
			<point x="38" y="836"/>
			<point x="68" y="817"/>
			<point x="68" y="778" type="curve" smooth="yes"/>
			<point x="68" y="740"/>
			<point x="38" y="722"/>
		</contour>
	</outline>
	<anchor name="_aboveUC" x="0" y="682"/>
</glyph>
<glyph name="seven.cap" format="2">
	<advance width="472"/>
	<outline>
		<contour>
			<point x="192" y="0" type="curve"/>
			<point x="226" y="0" type="line"/>
			<point x="236" y="258"/>
			<point x="273" y="432"/>
			<point x="430" y="642" type="curve"/>
			<point x="430" y="660" type="line"/>
			<point x="44" y="660" type="line"/>
			<point x="44" y="632" type="line"/>
			<point x="388" y="632" type="line"/>
			<point x="255" y="446"/>
			<point x="202" y="273"/>
		</contour>
	</outline>
</glyph>
<glyph name="seven.pnum" format="2">
	<advance width="470"/>
	<outline>
		<contour>
			<point x="182" y="0" type="curve"/>
			<point x="216" y="0" type="line"/>
			<point x="226" y="250"/>
			<point x="264" y="416"/>
			<point x="416" y="622" type="curve"/>
			<point x="416" y="640" type="line"/>
			<point x="44" y="640" type="line"/>
			<point x="44" y="612" type="line"/>
			<point x="374" y="612" type="line"/>
			<point x="246" y="430"/>
			<point x="192" y="264"/>
		</contour>
	</outline>
</glyph>
<glyph name="six.dnom" format="2">
	<advance width="360"/>
	<outline>
		<contour>
			<point x="192" y="-12" type="curve" smooth="yes"/>
			<point x="262" y="-12"/>
			<point x="314" y="44"/>
			<point x="314" y="116" type="curve" smooth="yes"/>
			<point x="314" y="188"/>
			<point x="272" y="242"/>
			<point x="192" y="242" type="curve" smooth="yes"/>
			<point x="148" y="242"/>
			<point x="110" y="224"/>
			<point x="76" y="190" type="curve"/>
			<point x="76" y="155" type="line"/>
			<point x="118" y="202"/>
			<point x="150" y="216"/>
			<point x="190" y="216" type="curve" smooth="yes"/>
			<point x="252" y="216"/>
			<point x="284" y="172"/>
			<point x="284" y="116" type="curve" smooth="yes"/>
			<point x="284" y="60"/>
			<point x="248" y="14"/>
			<point x="194" y="14" type="curve" smooth="yes"/>
			<point x="124" y="14"/>
			<point x="82" y="76"/>
			<point x="82" y="180" type="curve" smooth="yes"/>
			<point x="82" y="322"/>
			<point x="150" y="376"/>
			<point x="210" y="376" type="curve" smooth="yes"/>
			<point x="238" y="376"/>
			<point x="260" y="366"/>
			<point x="278" y="354" type="curve"/>
			<point x="292" y="380" type="line"/>
			<point x="270" y="394"/>
			<point x="248" y="402"/>
			<point x="212" y="402" type="curve" smooth="yes"/>
			<point x="132" y="402"/>
			<point x="52" y="344"/>
			<point x="52" y="178" type="curve" smooth="yes"/>
			<point x="52" y="56"/>
			<point x="110" y="-12"/>
		</contour>
	</outline>
</glyph>
<glyph name="six.sc" format="2">
	<advance width="463"/>
	<outline>
		<contour>
			<point x="257" y="-12" type="curve" smooth="yes"/>
			<point x="342" y="-12"/>
			<point x="414" y="55"/>
			<point x="414" y="147" type="curve" smooth="yes"/>
			<point x="414" y="250"/>
			<point x="356" y="307"/>
			<point x="253" y="307" type="curve" smooth="yes"/>
			<point x="194" y="307"/>
			<point x="139" y="277"/>
			<point x="97" y="231" type="curve"/>
			<point x="97" y="196" type="line"/>
			<point x="148" y="257"/>
			<point x="206" y="280"/>
			<point x="249" y="280" type="curve" smooth="yes"/>
			<point x="343" y="280"/>
			<point x="381" y="223"/>
			<point x="381" y="147" type="curve" smooth="yes"/>
			<point x="381" y="72"/>
			<point x="328" y="16"/>
			<point x="258" y="16" type="curve" smooth="yes"/>
			<point x="149" y="16"/>
			<point x="101" y="103"/>
			<point x="101" y="229" type="curve" smooth="yes"/>
			<point x="101" y="427"/>
			<point x="183" y="494"/>
			<point x="278" y="494" type="curve" smooth="yes"/>
			<point x="318" y="494"/>
			<point x="354" y="480"/>
			<point x="381" y="451" type="curve"/>
			<point x="400" y="473" type="line"/>
			<point x="371" y="502"/>
			<point x="333" y="522"/>
			<point x="281" y="522" type="curve" smooth="yes"/>
			<point x="168" y="522"/>
			<point x="69" y="446"/>
			<point x="69" y="229" type="curve" smooth="yes"/>
			<point x="69" y="75"/>
			<point x="139" y="-12"/>
		</contour>
	</outline>
</glyph>
<glyph name="three.tnum" format="2">
	<advance width="472"/>
	<outline>
		<contour>
			<point x="230" y="-82" type="curve" smooth="yes"/>
			<point x="338" y="-82"/>
			<point x="420" y="-12"/>
			<point x="420" y="98" type="curve" smooth="yes"/>
			<point x="420" y="190"/>
			<point x="352" y="250"/>
			<point x="272" y="266" type="curve"/>
			<point x="272" y="270" type="line"/>
			<point x="342" y="293"/>
			<point x="396" y="344"/>
			<point x="396" y="430" type="curve" smooth="yes"/>
			<point x="396" y="526"/>
			<point x="322" y="582"/>
			<point x="228" y="582" type="curve" smooth="yes"/>
			<point x="154" y="582"/>
			<point x="100" y="546"/>
			<point x="58" y="504" type="curve"/>
			<point x="78" y="482" type="line"/>
			<point x="114" y="522"/>
			<point x="168" y="554"/>
			<point x="228" y="554" type="curve" smooth="yes"/>
			<point x="310" y="554"/>
			<point x="364" y="504"/>
			<point x="364" y="428" type="curve" smooth="yes"/>
			<point x="364" y="348"/>
			<point x="310" y="282"/>
			<point x="158" y="282" type="curve"/>
			<point x="158" y="252" type="line"/>
			<point x="320" y="252"/>
			<point x="388" y="188"/>
			<point x="388" y="96" type="curve" smooth="yes"/>
			<point x="388" y="6"/>
			<point x="322" y="-54"/>
			<point x="232" y="-54" type="curve" smooth="yes"/>
			<point x="140" y="-54"/>
			<point x="88" y="-12"/>
			<point x="50" y="30" type="curve"/>
			<point x="30" y="8" type="line"/>
			<point x="70" y="-34"/>
			<point x="128" y="-82"/>
		</contour>
	</outline>
</glyph>
<glyph name="zero.dnom" format="2">
	<advance width="360"/>
	<outline>
		<contour>
			<point x="180" y="-12" type="curve" smooth="yes"/>
			<point x="266" y="-12"/>
			<point x="318" y="62"/>
			<point x="318" y="196" type="curve" smooth="yes"/>
			<point x="318" y="328"/>
			<point x="266" y="402"/>
			<point x="180" y="402" type="curve" smooth="yes"/>
			<point x="94" y="402"/>
			<point x="42" y="328"/>
			<point x="42" y="196" type="curve" smooth="yes"/>
			<point x="42" y="62"/>
			<point x="94" y="-12"/>
		</contour>
		<contour>
			<point x="180" y="14" type="curve" smooth="yes"/>
			<point x="114" y="14"/>
			<point x="72" y="82"/>
			<point x="72" y="196" type="curve" smooth="yes"/>
			<point x="72" y="310"/>
			<point x="114" y="376"/>
			<point x="180" y="376" type="curve" smooth="yes"/>
			<point x="246" y="376"/>
			<point x="288" y="310"/>
			<point x="288" y="196" type="curve" smooth="yes"/>
			<point x="288" y="82"/>
			<point x="246" y="14"/>
		</contour>
	</outline>
</glyph>
